<svg width="47" height="46" viewBox="0 0 47 46" fill="none" xmlns="http://www.w3.org/2000/svg">
<rect x="0.5" width="46" height="46" rx="5.54077" fill="#142782"/>
<rect x="12.002" y="10.5418" width="22.999" height="2.87488" rx="1.43744" fill="white"/>
<rect x="30.6895" y="22.0411" width="4.31232" height="2.87488" rx="1.43744" fill="white"/>
<rect x="20.6289" y="22.0411" width="7.1872" height="2.87488" rx="1.43744" fill="white"/>
<rect x="32.127" y="27.7908" width="2.87488" height="2.87488" rx="1.43744" fill="white"/>
<rect x="27.8125" y="16.2908" width="7.1872" height="2.87488" rx="1.43744" fill="white"/>
<rect x="12.002" y="27.7908" width="10.0621" height="2.87488" rx="1.43744" fill="white"/>
<rect x="17.75" y="16.2908" width="7.1872" height="2.87488" rx="1.43744" fill="white"/>
<rect x="24.9375" y="27.7908" width="5.74976" height="2.87488" rx="1.43744" fill="white"/>
<rect x="26.377" y="33.5406" width="8.62464" height="2.87488" rx="1.43744" fill="white"/>
<rect x="17.75" y="33.5406" width="5.74976" height="2.87488" rx="1.43744" fill="white"/>
<rect x="12.002" y="33.5406" width="2.87488" height="2.87488" rx="1.43744" fill="white"/>
<rect x="12.002" y="16.2908" width="2.87488" height="2.87488" rx="1.43744" fill="white"/>
<rect x="12.002" y="22.0411" width="5.74976" height="2.87488" rx="1.43744" fill="white"/>
</svg>
